<?xml version="1.0" encoding="UTF-8" standalone="no"?>
<svg
   xmlns:dc="http://purl.org/dc/elements/1.1/"
   xmlns:cc="http://creativecommons.org/ns#"
   xmlns:rdf="http://www.w3.org/1999/02/22-rdf-syntax-ns#"
   xmlns:svg="http://www.w3.org/2000/svg"
   xmlns="http://www.w3.org/2000/svg"
   viewBox="0 0 1058.9867 225.16"
   height="225.16"
   width="1058.9867"
   xml:space="preserve"
   version="1.1"
   id="svg2"><metadata
     id="metadata8"><rdf:RDF><cc:Work
         rdf:about=""><dc:format>image/svg+xml</dc:format><dc:type
           rdf:resource="http://purl.org/dc/dcmitype/StillImage" /></cc:Work></rdf:RDF></metadata><defs
     id="defs6"><clipPath
       id="clipPath18"
       clipPathUnits="userSpaceOnUse"><path
         id="path20"
         d="m 0,0 7942,0 0,1688.71 -7942,0 L 0,0 Z" /></clipPath></defs><g
     transform="matrix(1.3333333,0,0,-1.3333333,0,225.16)"
     id="g10"><g
       transform="scale(0.1)"
       id="g12"><g
         id="g14"><g
           clip-path="url(#clipPath18)"
           id="g16"><path
             id="path22"
             style="fill:#2a4c84;fill-opacity:1;fill-rule:nonzero;stroke:none"
             d="m 2317.8,1235.34 c -4.13,13.11 -16.29,22.01 -30.04,22.01 l -293.94,0 c -13.75,0 -25.91,-8.9 -30.04,-22.01 L 1592.92,59.1602 c -3.01,-9.5782 -1.3,-20 4.64,-28.1211 5.93,-8.0703 15.36,-12.8594 25.4,-12.8594 l 202.37,0 c 13.96,0 26.26,9.1914 30.21,22.6015 l 255.39,865.0078 c 0,0 6.68,21.582 29.81,21.582 23.51,0 29.23,-22.461 29.23,-22.48 l 118.5,-410.153 -159.18,0 c -14.11,0 -26.51,-9.379 -30.32,-22.968 l -45.68,-162.399 c -2.67,-9.512 -0.74,-19.68 5.22,-27.543 5.95,-7.867 15.24,-12.476 25.11,-12.476 l 271.1,0 71.37,-229.0434 c 4.1,-13.1602 16.28,-22.1289 30.08,-22.1289 l 202.45,0 c 10.05,0 19.48,4.7891 25.41,12.8594 5.93,8.1211 7.65,18.5429 4.64,28.1211 L 2317.8,1235.34" /><path
             id="path24"
             style="fill:#2a4c84;fill-opacity:1;fill-rule:nonzero;stroke:none"
             d="m 3199.49,199.441 c -1.34,8.77 -6.28,16.571 -13.67,21.508 -7.38,4.93 -16.48,6.512 -25.09,4.36 -32.86,-8.161 -64.33,-12.668 -88.62,-12.668 -46.05,0 -66.57,19.968 -66.57,64.738 l 0,450.637 180.71,0 c 17.4,0 31.51,14.121 31.51,31.504 l 0,140.558 c 0,17.391 -14.11,31.484 -31.51,31.484 l -180.71,0 0,216.998 c 0,9.11 -3.95,17.78 -10.82,23.75 -6.88,5.99 -16.04,8.69 -25.03,7.44 l -186.05,-25.92 c -15.57,-2.17 -27.17,-15.48 -27.17,-31.19 l 0,-191.078 -101.35,0 c -17.4,0 -31.5,-14.093 -31.5,-31.484 l 0,-140.558 c 0,-17.383 14.1,-31.504 31.5,-31.504 l 101.35,0 0,-479.746 C 2756.47,83.5117 2843.08,0 3013.87,0 c 48.6,0 131.14,11.1914 185.12,29.9609 14.33,4.9688 23.08,19.4493 20.82,34.4102 l -20.32,135.0699" /><path
             id="path26"
             style="fill:#2a4c84;fill-opacity:1;fill-rule:nonzero;stroke:none"
             d="m 3543.94,1280.29 -186.06,0 c -17.39,0 -31.5,-14.09 -31.5,-31.51 l 0,-1199.0886 c 0,-17.4102 14.11,-31.5117 31.5,-31.5117 l 186.06,0 c 17.39,0 31.5,14.1015 31.5,31.5117 l 0,1199.0886 c 0,17.42 -14.11,31.51 -31.5,31.51" /><path
             id="path28"
             style="fill:#2a4c84;fill-opacity:1;fill-rule:nonzero;stroke:none"
             d="m 4147.2,353.07 0,-109.558 c -30.84,-16.442 -86.72,-39.981 -153.94,-39.981 -58,0 -75.68,17.68 -75.68,75.688 0,56.332 10.94,73.851 79.32,73.851 l 150.3,0 z m -124.83,596.703 c -94.2,0 -208.83,-14.851 -292.03,-37.859 -15.49,-4.269 -25.26,-19.531 -22.7,-35.363 l 21.78,-135.067 c 1.35,-8.429 6.07,-15.929 13.06,-20.812 6.98,-4.883 15.66,-6.727 24.05,-5.078 77.37,15.051 157.25,23.351 224.91,23.351 134.29,0 155.76,-28.351 155.76,-119.355 l 0,-79.34 -199.44,0 C 3757.14,540.25 3675.8,461.629 3675.8,277.379 3675.8,101.102 3764.97,0 3920.45,0 c 89.93,0 179.99,24.9609 255.69,70.6016 l 7.96,-29.211 c 3.74,-13.6992 16.18,-23.2109 30.4,-23.2109 l 150.26,0 c 17.39,0 31.5,14.1015 31.5,31.5117 l 0,566.2496 c 0,243.356 -101.34,333.832 -373.89,333.832" /><path
             id="path30"
             style="fill:#2a4c84;fill-opacity:1;fill-rule:nonzero;stroke:none"
             d="m 4862.5,583.5 c -115.45,29.762 -115.45,30.961 -115.45,94.309 0,42.531 4.22,62.961 99.34,62.961 65.16,0 161.31,-11.387 223.05,-21.961 8.49,-1.457 17.2,0.625 24.1,5.781 6.91,5.125 11.42,12.879 12.48,21.414 l 17.54,141.808 c 1.98,15.997 -8.42,30.899 -24.12,34.559 -71.4,16.641 -170.74,27.402 -253.05,27.402 -286.13,0 -344.76,-107.996 -344.76,-270.125 0,-178.269 33.12,-238.179 252.42,-291.609 144.36,-34.738 144.36,-60.559 144.36,-103.367 0,-56.223 -4.81,-75.672 -99.33,-75.672 -76.1,0 -164.17,11.84 -241.65,32.5 -8.49,2.262 -17.54,0.871 -24.97,-3.84 -7.43,-4.672 -12.54,-12.289 -14.13,-20.941 L 4493.73,82.1719 C 4490.89,66.6211 4499.98,51.4102 4515,46.5391 4599.5,19.1211 4720.8,0 4809.99,0 c 277.06,0 333.84,115.98 333.84,290.141 0,192.308 -34.16,227.937 -281.33,293.359" /><path
             id="path32"
             style="fill:#2a4c84;fill-opacity:1;fill-rule:nonzero;stroke:none"
             d="m 5581.43,583.5 c -115.45,29.762 -115.45,30.961 -115.45,94.309 0,42.531 4.22,62.961 99.34,62.961 65.16,0 161.3,-11.387 223.05,-21.961 8.49,-1.457 17.2,0.625 24.1,5.781 6.91,5.125 11.42,12.879 12.47,21.414 l 17.54,141.808 c 1.98,15.997 -8.41,30.899 -24.11,34.559 -71.41,16.641 -170.74,27.402 -253.05,27.402 -286.13,0 -344.76,-107.996 -344.76,-270.125 0,-178.269 33.11,-238.179 252.42,-291.609 144.36,-34.738 144.36,-60.559 144.36,-103.367 0,-56.223 -4.81,-75.672 -99.34,-75.672 -76.1,0 -164.17,11.84 -241.64,32.5 -8.5,2.262 -17.55,0.871 -24.97,-3.84 -7.43,-4.672 -12.55,-12.289 -14.13,-20.941 l -24.6,-134.5471 c -2.85,-15.5508 6.25,-30.7617 21.27,-35.6328 C 5318.42,19.1211 5439.73,0 5528.92,0 c 277.06,0 333.84,115.98 333.84,290.141 0,192.308 -34.16,227.937 -281.33,293.359" /><path
             id="path34"
             style="fill:#2a4c84;fill-opacity:1;fill-rule:nonzero;stroke:none"
             d="m 6183.56,1280.34 -186.06,0 c -17.39,0 -31.5,-14.1 -31.5,-31.49 l 0,-164.51 c 0,-17.41 14.11,-31.5 31.5,-31.5 l 186.06,0 c 17.39,0 31.5,14.09 31.5,31.5 l 0,164.51 c 0,17.39 -14.11,31.49 -31.5,31.49" /><path
             id="path36"
             style="fill:#2a4c84;fill-opacity:1;fill-rule:nonzero;stroke:none"
             d="m 6183.56,931.562 -186.06,0 c -17.39,0 -31.5,-14.093 -31.5,-31.484 l 0,-850.3866 c 0,-17.4102 14.11,-31.5117 31.5,-31.5117 l 186.06,0 c 17.39,0 31.5,14.1015 31.5,31.5117 l 0,850.3866 c 0,17.391 -14.11,31.484 -31.5,31.484" /><path
             id="path38"
             style="fill:#2a4c84;fill-opacity:1;fill-rule:nonzero;stroke:none"
             d="m 6791.5,353.07 0,-109.558 c -30.85,-16.442 -86.72,-39.981 -153.95,-39.981 -58,0 -75.67,17.68 -75.67,75.688 0,56.332 10.94,73.851 79.31,73.851 l 150.31,0 z m -124.83,596.703 c -94.21,0 -208.83,-14.851 -292.03,-37.859 -15.49,-4.269 -25.26,-19.531 -22.7,-35.363 l 21.77,-135.067 c 1.36,-8.429 6.08,-15.929 13.07,-20.812 6.98,-4.883 15.65,-6.727 24.05,-5.078 77.36,15.051 157.24,23.351 224.91,23.351 134.28,0 155.76,-28.351 155.76,-119.355 l 0,-79.34 -199.45,0 C 6401.44,540.25 6320.1,461.629 6320.1,277.379 6320.1,101.102 6409.27,0 6564.75,0 c 89.93,0 179.99,24.9609 255.68,70.6016 l 7.97,-29.211 c 3.74,-13.6992 16.18,-23.2109 30.39,-23.2109 l 150.27,0 c 17.39,0 31.5,14.1015 31.5,31.5117 l 0,566.2496 c 0,243.356 -101.34,333.832 -373.89,333.832" /><path
             id="path40"
             style="fill:#2a4c84;fill-opacity:1;fill-rule:nonzero;stroke:none"
             d="m 7728.73,949.773 c -98.63,0 -232.94,-34.003 -346.42,-87.265 l -13.59,46.418 c -3.93,13.426 -16.25,22.636 -30.23,22.636 l -137.78,0 c -17.4,0 -31.51,-14.093 -31.51,-31.484 l 0,-850.3866 c 0,-17.4102 14.11,-31.5117 31.51,-31.5117 l 186.05,0 c 17.39,0 31.5,14.1015 31.5,31.5117 l 0,588.9496 c 67.02,34.097 161.25,69.347 217.65,69.347 41.9,0 57.47,-15.566 57.47,-57.457 l 0,-600.8396 c 0,-17.4102 14.11,-31.5117 31.51,-31.5117 l 186.05,0 c 17.39,0 31.5,14.1015 31.5,31.5117 l 0,624.4996 c 0,182.868 -71.9,275.582 -213.71,275.582" /><path
             id="path42"
             style="fill:#68b1e4;fill-opacity:1;fill-rule:nonzero;stroke:none"
             d="m 1821.7,1671.31 c -8.12,10.9 -21.09,17.4 -34.65,17.4 -7.01,0 -13.92,-1.77 -19.98,-5.08 -254.16,-139.13 -548.81,-212.72 -852.066,-212.79 -303.27,0.07 -597.899,73.66 -852.0548,212.78 -6.0586,3.32 -12.9648,5.08 -19.9726,5.08 -13.586,0 -26.5391,-6.49 -34.64848,-17.36 -12.03124,-15.99 -12.41015,-42.83 8.08598,-58.82 127.2889,-94.9 267.6059,-169 417.0629,-219.66 154.918,-52.56 316.91,-79.25 481.468,-79.32 l 0.117,0 c 164.568,0.07 326.558,26.76 481.468,79.32 149.47,50.68 289.78,124.76 417.24,219.78 20.33,15.88 19.94,42.72 7.93,58.67" /><path
             id="path44"
             style="fill:#68b1e4;fill-opacity:1;fill-rule:nonzero;stroke:none"
             d="m 1529.59,1274.98 c -6.05,4.61 -13.33,7 -20.71,7 -4.09,0 -8.23,-0.75 -12.16,-2.26 -73.67,-28.17 -148.47,-49.56 -216.76,-65.47 -13.92,-3.25 -25.17,-13.59 -29.84,-26.02 -49.75,-136.26 -176.78,-266.015 -310.058,-401.933 -5.351,-5.078 -12.843,-11.777 -25.039,-11.777 -12.168,0 -19.589,6.484 -25.039,11.777 -133.269,135.918 -260.3,265.213 -310.054,401.503 -4.668,12.4 -15.926,22.75 -29.836,26 -68.321,15.91 -143.321,37.97 -216.883,66.13 -3.953,1.51 -8.09,2.26 -12.199,2.26 -7.371,0 -14.516,-2.32 -20.555,-6.93 -9.445,-7.21 -14.336,-18.88 -13.223,-30.1 11.289,-113.32 56.059,-224.1 136.871,-340.191 C 500.062,795.82 599.137,694.805 694.934,597.102 871.434,417.078 1038.17,247.051 1052.8,49.8789 c 1.31,-17.7773 16.13,-31.5703 34,-31.5703 l 207.36,0 c 9.34,0 18.26,3.8398 24.71,10.6016 6.43,6.7695 9.82,15.8515 9.36,25.1914 -6.53,131.8204 -56.14,263.8284 -151.66,403.5274 -20.02,29.293 -41.47,57.793 -63.89,85.68 -9.1,11.363 -5.29,25.472 1.68,32.582 6.88,7.058 13.81,14.089 20.76,21.211 95.8,97.71 194.86,198.718 270.84,307.867 80.8,116.101 125.57,226.231 136.86,339.531 1.13,11.38 -4.05,23.47 -13.23,30.48" /><path
             id="path46"
             style="fill:#68b1e4;fill-opacity:1;fill-rule:nonzero;stroke:none"
             d="m 692.508,443.738 c -4.906,5.133 -12.11,10.371 -24.211,10.371 -15.477,0 -24.664,-10.699 -28.133,-16.007 C 552.941,305.379 507.895,180.109 501.668,54.2188 c -0.457,-9.2774 2.965,-18.5 9.394,-25.2891 6.438,-6.7305 15.481,-10.6211 24.801,-10.6211 l 207.012,0 c 17.805,0 32.813,13.9414 34.125,31.7031 4.508,60.6683 23.398,121.4883 57.781,185.3983 11.914,22.11 2.657,42.879 -4.203,51.762 -34.121,44.367 -75.91,91.699 -138.07,156.566" /><path
             id="path48"
             style="fill:#68b1e4;fill-opacity:1;fill-rule:nonzero;stroke:none"
             d="m 915.219,1173.39 c 64.98,0 102.671,3.91 115.921,3.91 16.03,0 31.36,-13.14 31.36,-31.54 0,-5.37 -1.27,-9.21 -2.53,-12.6 -8.62,-23.04 -47.9,-105.95 -121.021,-177.058 -8.203,-7.969 -17.5,-9.461 -23.906,-9.461 l -0.078,0 c -6.387,0 -15.684,1.492 -23.879,9.461 -73.129,71.108 -112.422,154.018 -121.02,177.058 -1.269,3.39 -2.539,7.23 -2.539,12.6 0,18.4 15.34,31.54 31.383,31.54 13.235,0 50.922,-3.91 115.879,-3.91 l 0.43,0" /></g></g></g></g></svg>