<?xml version="1.0" encoding="utf-8"?>
<!-- Generator: Adobe Illustrator 18.0.0, SVG Export Plug-In . SVG Version: 6.00 Build 0)  -->
<!DOCTYPE svg PUBLIC "-//W3C//DTD SVG 1.1//EN" "http://www.w3.org/Graphics/SVG/1.1/DTD/svg11.dtd">
<svg version="1.1" id="Layer_1" xmlns="http://www.w3.org/2000/svg" xmlns:xlink="http://www.w3.org/1999/xlink" x="0px" y="0px"
	 viewBox="0 0 950 522.1" enable-background="new 0 0 950 522.1" xml:space="preserve">
<g>
	<path fill="#004866" d="M405.4,335.7h10v20.3h34.3v-20.3h10v51.2h-10v-22.1h-34.3v22.1h-10V335.7z"/>
	<path fill="#004866" d="M479.4,335.7h45.9v8.6h-35.9v11.9h30.9v8.6h-30.9v13.5h36.7v8.6h-46.7V335.7z"/>
	<path fill="#004866" d="M561.3,335.7h11.4l24.8,51.2H587l-5.4-11.8h-29.5l-5.4,11.8h-10.6L561.3,335.7z M577.8,366.5L567,343.7
		l-10.7,22.8H577.8z"/>
	<path fill="#004866" d="M611.7,335.7h10V378h37v8.9h-47V335.7z"/>
	<path fill="#004866" d="M678.1,344.3h-22.9v-8.6H711v8.6h-22.9v42.6h-10V344.3z"/>
	<path fill="#004866" d="M725.9,335.7h10v20.3h34.4v-20.3h10v51.2h-10v-22.1h-34.4v22.1h-10V335.7z"/>
</g>
<path fill="#004866" d="M137.6,167c58.9,0,79.6,34.6,79.6,71.2c0,27.7-16.4,69.1-79.6,69.1c-63.3,0-79.6-41.4-79.6-69.1
	C58,201.6,78.8,167,137.6,167z M191.1,236.7c0-32.2-23-47.3-53.5-47.3c-30.5,0-53.5,15.1-53.5,47.3c0,37.8,28.5,48.1,53.5,48.1
	C162.6,284.8,191.1,274.6,191.1,236.7z"/>
<path fill="#004866" d="M405.3,170.3h26.1V304h-26.1V170.3z"/>
<path fill="#004866" d="M535.6,167c58.8,0,79.6,34.6,79.6,71.2c0,27.7-16.3,69.1-79.6,69.1c-63.2,0-79.6-41.4-79.6-69.1
	C456.1,201.6,476.8,167,535.6,167z M589.2,236.7c0-32.2-23-47.3-53.5-47.3c-30.5,0-53.5,15.1-53.5,47.3c0,37.8,28.5,48.1,53.5,48.1
	C560.7,284.8,589.2,274.6,589.2,236.7z"/>
<path fill="#004866" d="M638.2,170.3h27.6l89.3,96.6v-96.6h25V304h-23.9l-93-100v100h-25V170.3z"/>
<path fill="#004866" d="M337.6,249.6c19.7-1.1,37.3-14.7,37.3-39.4c0-32.7-22.8-39.9-54.4-39.9h-80.4V304h26.1V192h50.4
	c21.4,0,32.2,3.1,32.2,18.7c0,15.8-10.8,19-32.2,19h-24.3l54.1,74.3h32.2L337.6,249.6z"/>
<path fill="#F05323" d="M807.7,113.4c-14.9,3.3-42.1,7-60,10.1c-9.2,1.6-16.6,3.4-17.6,4c11.2,1.5,33,0,51.2,3.8
	c8.4,1.8,29,4.9,32.1,26.8c1.5,36.5,3.2,88.7,5.4,117.3c9.4-53.8,12.8-104,20.5-106.3c12-3.7,76.1,48.6,92.4,61.6
	c-62-74.3-76.9-83.3-76.1-92.7c1.6-18.1,48.1-28,71.4-36.7c-15.6-1.6-49,5-69.8,6.4c-10.2,0.8-17.4,0.7-18.2-5.5
	c-1.7-12.3-2.7-25.1-4.9-37.2c-5.1-3.6-7.7,23.4-12.2,37.7C819.8,109.7,816.4,110.8,807.7,113.4L807.7,113.4L807.7,113.4z"/>
</svg>
